<?xml version="1.0" encoding="UTF-8" standalone="no"?>
<svg
   xmlns:dc="http://purl.org/dc/elements/1.1/"
   xmlns:cc="http://creativecommons.org/ns#"
   xmlns:rdf="http://www.w3.org/1999/02/22-rdf-syntax-ns#"
   xmlns:svg="http://www.w3.org/2000/svg"
   xmlns="http://www.w3.org/2000/svg"
   id="svg3783"
   xml:space="preserve"
   width="512px"
   viewBox="0 0 512 512"
   version="1.1"
   height="512px"
   enable-background="new 0 0 512 512"><metadata
     id="metadata3798"><rdf:RDF><cc:Work
         rdf:about=""><dc:format>image/svg+xml</dc:format><dc:type
           rdf:resource="http://purl.org/dc/dcmitype/StillImage" /><dc:title></dc:title></cc:Work></rdf:RDF></metadata><defs
     id="defs3796" /><g
     style="fill:#ffffff"
     id="Layer_12"><g
       style="fill:#ffffff"
       id="g3786"><path
         style="fill:#ffffff"
         id="path3788"
         d="M438.121,17.334c-11.253-7.139-69.747,64.736-94.439,103.567L227.041,304.309l40.702,25.875L384.374,146.79    C409.074,107.958,449.365,24.482,438.121,17.334z" /><path
         style="fill:#ffffff"
         id="path3790"
         d="M176.203,411.83l15.715,10.013l70.194-82.803l-40.683-25.883L176.203,411.83z M229.156,334.444    c12.064-10.044-20.328,38.104-31.741,59.735c-2.303,5.925-3.712,9.798-3.712,9.798c-0.527-1.018,1-4.677,3.712-9.798    C204,377.296,218.108,343.653,229.156,334.444z" /><path
         style="fill:#ffffff"
         id="path3792"
         d="M170.037,417.951c-17.321-0.838-35.668,11.012-42.789,26.146c-12.564,26.709-111.527,51.062-9.94,51.062    c68.274,0,71.166-50.659,71.112-65.571L170.037,417.951z M102.547,488.056c-42.254-9.155,27.029,6.157,62.322-15.759    C164.87,472.297,144.828,497.203,102.547,488.056z" /></g></g></svg>