<?xml version="1.0" encoding="UTF-8" standalone="no"?>
<svg
   xmlns:dc="http://purl.org/dc/elements/1.1/"
   xmlns:cc="http://creativecommons.org/ns#"
   xmlns:rdf="http://www.w3.org/1999/02/22-rdf-syntax-ns#"
   xmlns:svg="http://www.w3.org/2000/svg"
   xmlns="http://www.w3.org/2000/svg"
   viewBox="0 0 512 512"
   height="512"
   width="512"
   version="1.1"
   id="svg3598">
  <metadata
     id="metadata3604">
    <rdf:RDF>
      <cc:Work
         rdf:about="">
        <dc:format>image/svg+xml</dc:format>
        <dc:type
           rdf:resource="http://purl.org/dc/dcmitype/StillImage" />
        <dc:title></dc:title>
      </cc:Work>
    </rdf:RDF>
  </metadata>
  <defs
     id="defs3602" />
  <path
     id="path3608"
     d="m 190.01211,472.01081 c -10.10733,-1.83394 -19.47274,-5.07163 -29.33414,-10.14101 -26.31184,-13.52597 -44.72538,-36.6104 -52.78315,-66.17246 -2.6432,-9.69729 -2.64556,-9.73962 -2.68119,-48.20581 l -0.0357,-38.5 2.66581,-5 c 1.4662,-2.75 4.6162,-6.86129 7,-9.13619 2.5311,-2.41547 18.89476,-12.58521 39.33419,-24.44554 46.76273,-27.13486 43.11606,-25.41827 53.99776,-25.41827 9.99307,0 15.03841,1.84006 21.19821,7.73108 l 3.19596,3.05651 0.30404,-39.3938 0.30403,-39.39379 2.74991,-5.21657 c 3.51063,-6.65968 8.44164,-11.57291 15.03352,-14.97933 7.47245,-3.86147 18.79582,-3.93932 26.80305,-0.18428 7.101,3.33005 12.46365,8.6927 15.7937,15.7937 l 2.61982,5.58648 0.27328,79.87846 0.27328,79.87845 9.72672,-9.39906 c 10.65851,-10.29947 19.08584,-15.43938 30.22672,-18.43557 7.97072,-2.14361 23.38829,-2.4006 31,-0.51672 7.58818,1.87806 17.944,6.6666 21.23401,9.81864 3.25035,3.11403 4.44636,8.21902 2.83626,12.10615 -1.6887,4.07689 -117.26723,119.03156 -124.57027,123.89788 -23.15439,15.42874 -51.12755,21.51561 -77.16586,16.79105 z m -59.09122,-259.77623 -26.24292,-26.25694 27,-26.98611 27,-26.98611 0,18.74306 0,18.74305 24,0 24,0 0,16 0,16 -24,0 -24,0 0,18.5 c 0,10.175 -0.34068,18.5 -0.75708,18.5 -0.41639,0 -12.56639,-11.81563 -27,-26.25695 z m 245.75708,7.75695 0,-18.5 -24,0 -24,0 0,-16 0,-16 24,0 24,0 0,-18.74292 0,-18.74293 26.5,26.48585 c 14.575,14.56722 26.5,26.94228 26.5,27.50014 0,1.15068 -51.11172,52.49986 -52.25708,52.49986 -0.4086,0 -0.74292,-8.325 -0.74292,-18.5 z m -128,-106.5 0,-24.000002 -18.74766,0 -18.74767,0 26.74767,-26.747666 26.74766,-26.747663 26.74766,26.747663 26.74767,26.747666 -18.74767,0 -18.74766,0 0,24.000002 0,24 -16,0 -16,0 0,-24 z"
     style="fill:#ffffff" />
</svg>
