<?xml version="1.0" encoding="UTF-8" standalone="no"?>
<svg
   xmlns:dc="http://purl.org/dc/elements/1.1/"
   xmlns:cc="http://creativecommons.org/ns#"
   xmlns:rdf="http://www.w3.org/1999/02/22-rdf-syntax-ns#"
   xmlns:svg="http://www.w3.org/2000/svg"
   xmlns="http://www.w3.org/2000/svg"
   viewBox="0 0 225 225"
   height="225"
   width="225"
   version="1.1"
   id="svg3513">
  <metadata
     id="metadata3519">
    <rdf:RDF>
      <cc:Work
         rdf:about="">
        <dc:format>image/svg+xml</dc:format>
        <dc:type
           rdf:resource="http://purl.org/dc/dcmitype/StillImage" />
        <dc:title></dc:title>
      </cc:Work>
    </rdf:RDF>
  </metadata>
  <defs
     id="defs3517" />
  <path
     id="path3523"
     d="m 53.936813,223.99802 c -5.5665,-1.31427 -11.2888,-6.05799 -14.32989,-11.87929 l -2.79336,-5.34711 0,-50.31438 c 0,-44.40702 0.1845,-50.49888 1.57143,-51.88581 C 39.779913,103.1765 46.950983,103 102.23,103 c 59.05964,0 62.359,0.0944 63.92857,1.82874 0.91025,1.00581 1.65499,3.19663 1.65499,4.86849 l 0,3.03976 7.31717,0.46958 c 11.74713,0.75389 21.20092,7.10165 26.80519,17.99837 3.05854,5.94692 3.73109,17.70949 1.41181,24.69217 -3.99943,12.04117 -15.29355,20.69606 -28.44601,21.79872 l -6.91388,0.57963 -0.33714,15.11227 c -0.32103,14.39031 -0.4687,15.33607 -3.091,19.79692 -1.51462,2.57656 -4.13471,5.66791 -5.82242,6.86967 -6.63505,4.72457 -9.30861,4.95241 -56.83265,4.84332 -24.52509,-0.0563 -46.110606,-0.46113 -47.967817,-0.89962 z M 180.06559,167.57325 c 9.53566,-3.40294 15.74797,-12.11002 15.74797,-22.07212 0,-6.66034 -1.59741,-10.83408 -6.11633,-15.98084 -4.30773,-4.90624 -9.99622,-7.47056 -16.63367,-7.49833 l -5.25,-0.022 0,23.5 0,23.5 4.25,-0.0439 c 2.3375,-0.0241 5.93841,-0.64643 8.00203,-1.38286 z M 48.637913,92.961512 c -1.49558,-0.872613 -11.82435,-14.290801 -11.82435,-15.361115 0,-1.184825 24.40631,-20.584578 25.034208,-19.898848 0.402111,0.439148 5.396414,7.32345 11.09845,15.29845 l 10.367338,14.5 0.253454,-42.5 C 83.796836,6.4623432 83.977811,2.3834605 85.508142,1.25 87.853099,-0.48682376 126.88147,-0.53209456 128.61356,1.2 c 0.74056,0.7405622 1.2,4.3777777 1.2,9.5 l 0,8.299999 -12.96482,0 c -11.79447,0 -13.05826,0.174606 -14,1.934259 -1.4064,2.627879 -1.30648,3.651583 0.53625,5.494312 1.25999,1.259989 4.03463,1.571429 14,1.571429 l 12.42857,0 0,4.5 0,4.5 -5.77749,0 c -6.33535,0 -10.22251,1.895678 -10.22251,4.985275 0,3.577998 2.74223,5.014725 9.57143,5.014725 l 6.42857,0 0,4.5 0,4.5 -12.4433,0 c -11.72493,0 -12.53316,0.128308 -14,2.222506 -2.00333,2.860157 -1.96421,3.369984 0.4433,5.777494 1.77778,1.777778 3.33333,2 14,2 l 12,0 0,4.5 0,4.5 -6.42857,0 c -7.05988,0 -9.91199,1.627548 -9.37465,5.349614 0.41702,2.888585 4.32325,4.618106 10.46989,4.635644 3.21696,0.0092 5.33513,0.486443 5.61309,1.264742 0.55951,1.566611 -0.51918,2.910228 12.14598,-15.129085 l 10.79744,-15.379085 -2.00287,-3.620915 c -4.74378,-8.576087 -3.75158,-14.48182 4.4434,-26.447818 5.89356,-8.605561 6.20159,-10.2681 3.23284,-17.4485337 -2.83842,-6.8652028 2.49777,-8.98891156 11.67609,-4.6468739 10.57,5.0004099 17.67805,14.7393716 19.27378,26.4075966 2.05194,15.004096 -3.62891,27.477617 -14.08597,30.928757 -2.96543,0.97868 -4.05266,2.614287 -11.00982,16.562974 -6.2532,12.537282 -8.18938,15.594997 -10.19338,16.097971 -1.36065,0.341501 -6.8315,0.464334 -12.15745,0.272962 -7.52229,-0.270292 -9.90857,-0.705013 -10.69183,-1.947786 -0.9089,-1.442125 -1.19624,-1.411891 -2.91482,0.30669 -1.77293,1.772922 -3.34417,1.885034 -22.42164,1.599836 -18.158277,-0.271457 -20.625403,-0.504075 -21.47517,-2.02483 -0.894168,-1.600216 -1.095143,-1.583058 -2.928201,0.25 -1.782718,1.782718 -3.357763,1.965275 -16.71814,1.937731 -8.1125,-0.01672 -15.504036,-0.47036 -16.425646,-1.008078 z M 175.29988,50.832099 c 3.87808,-3.050495 5.51368,-7.679229 5.51368,-15.603637 0,-7.793181 -3.1927,-15.661679 -7.83722,-19.315063 l -2.66197,-2.093904 -0.74087,4.340252 c -0.48082,2.816804 -2.74494,7.260526 -6.45041,12.660015 -4.237,6.174032 -5.70953,9.210179 -5.70953,11.772222 0,4.001326 2.79085,7.30351 7.67561,9.081937 4.81297,1.752288 7.15869,1.558895 10.21071,-0.841822 z m -143.845117,15.4179 c -1.26669,-4.491107 -3.75582,-22.38163 -3.46609,-24.912312 0.54727,-4.780105 4.23386,-4.244306 14.94603,2.172216 5.15837,3.089834 9.70794,5.940713 10.110154,6.335286 0.621448,0.609642 -19.322274,18.15481 -20.636714,18.15481 -0.25289,0 -0.68192,-0.7875 -0.95338,-1.75 z"
     style="fill:#ffffff" />
</svg>
