<?xml version="1.0" encoding="UTF-8" standalone="no"?>
<svg
   xmlns:dc="http://purl.org/dc/elements/1.1/"
   xmlns:cc="http://creativecommons.org/ns#"
   xmlns:rdf="http://www.w3.org/1999/02/22-rdf-syntax-ns#"
   xmlns:svg="http://www.w3.org/2000/svg"
   xmlns="http://www.w3.org/2000/svg"
   viewBox="0 0 512 512"
   height="512"
   width="512"
   version="1.1"
   id="svg4147">
  <metadata
     id="metadata4153">
    <rdf:RDF>
      <cc:Work
         rdf:about="">
        <dc:format>image/svg+xml</dc:format>
        <dc:type
           rdf:resource="http://purl.org/dc/dcmitype/StillImage" />
        <dc:title></dc:title>
      </cc:Work>
    </rdf:RDF>
  </metadata>
  <defs
     id="defs4151" />
  <path
     id="path4157"
     d="m 1.6949154e-7,469.9661 0,-16 L 224,453.9661 l 224,0 0,16 0,16 -224,0 -223.99999983050844,0 0,-16 z M 187.38666,419.99091 c -9.09403,-2.38439 -21.73362,-8.70625 -31.76214,-15.88628 C 145.24833,396.6757 68.350309,315.48511 64.254491,307.6342 61.993337,303.29999 61.553596,301.17528 61.52915,294.4661 61.47277,278.99362 49.684897,292.04434 196.86925,144.62694 269.26616,72.115414 330.19727,11.691093 332.27172,10.350689 c 5.15265,-3.3293854 14.83851,-5.6945764 20.04903,-4.8957714 2.29859,0.352389 6.87925,1.941891 10.17925,3.532227 5.26522,2.5374144 14.41346,11.3162894 74.70143,71.6852394 77.81634,77.920876 74.29628,73.709256 74.29777,88.894536 0.001,15.1302 6.31223,7.92649 -109.4992,124.99335 -56.375,56.98612 -105.425,105.81885 -109,108.51718 -8.99783,6.79136 -24.48873,14.58395 -33.64833,16.92659 -6.77485,1.73271 -11.01353,1.95562 -36.26163,1.907 -24.57203,-0.0473 -29.58974,-0.31718 -35.70338,-1.92013 z m 70.20362,-33.00778 c 3.25034,-1.64063 8.45606,-5.17442 11.56825,-7.85285 C 274.88164,374.20481 338,308.98346 338,307.99513 c 0,-0.29416 -28.91387,-29.44611 -64.25304,-64.7821 l -64.25305,-64.24725 -58.43075,58.43716 -58.43076,58.43715 14.65035,15.31301 c 34.93753,36.51779 65.48585,66.71841 71.19334,70.383 12.84917,8.25003 13.5445,8.37959 45.11419,8.40626 l 28.09028,0.0237 5.90972,-2.98297 z"
     style="fill:#ffffff" />
</svg>
