<?xml version="1.0" encoding="UTF-8" standalone="no"?>
<!-- Created with Inkscape (http://www.inkscape.org/) -->

<svg
   xmlns:dc="http://purl.org/dc/elements/1.1/"
   xmlns:cc="http://creativecommons.org/ns#"
   xmlns:rdf="http://www.w3.org/1999/02/22-rdf-syntax-ns#"
   xmlns:svg="http://www.w3.org/2000/svg"
   xmlns="http://www.w3.org/2000/svg"
   xmlns:sodipodi="http://sodipodi.sourceforge.net/DTD/sodipodi-0.dtd"
   xmlns:inkscape="http://www.inkscape.org/namespaces/inkscape"
   id="svg3491"
   version="1.1"
   inkscape:version="0.91 r13725"
   width="1225"
   height="1025"
   viewBox="0 0 1225 1025"
   sodipodi:docname="form-icon.svg">
  <metadata
     id="metadata3497">
    <rdf:RDF>
      <cc:Work
         rdf:about="">
        <dc:format>image/svg+xml</dc:format>
        <dc:type
           rdf:resource="http://purl.org/dc/dcmitype/StillImage" />
        <dc:title></dc:title>
      </cc:Work>
    </rdf:RDF>
  </metadata>
  <defs
     id="defs3495" />
  <sodipodi:namedview
     pagecolor="#ffffff"
     bordercolor="#666666"
     borderopacity="1"
     objecttolerance="10"
     gridtolerance="10"
     guidetolerance="10"
     inkscape:pageopacity="0"
     inkscape:pageshadow="2"
     inkscape:window-width="1366"
     inkscape:window-height="744"
     id="namedview3493"
     showgrid="false"
     inkscape:zoom="0.2302439"
     inkscape:cx="608.15678"
     inkscape:cy="512.5"
     inkscape:window-x="0"
     inkscape:window-y="24"
     inkscape:window-maximized="1"
     inkscape:current-layer="svg3491" />
  <path
     style="fill:#ffffff"
     d="m 280.14511,1023.5748 c -16.74255,-2.323 -35.92615,-9.9175 -50.33411,-19.9265 -12.19135,-8.46906 -18.94201,-14.67836 -28.40521,-26.12696 -17.35456,-20.9957 -28.45953,-45.5742 -33.9273,-75.0909 -1.87879,-10.1423 -1.9682,-27.8609 -1.9682,-390.00003 0,-362.2812 0.0888,-379.85106 1.96987,-389.94073 11.70952,-62.806179 52.54723,-108.615529 107.25765,-120.315369 6.09485,-1.30339001 74.38331,-1.61890001 350.39323,-1.61890001 324.93403,0 343.31825,0.11656 352.31272,2.23363001 26.73974,6.29385 49.05004,20.08246 67.93324,41.98536 18.806,21.81326 30.2545,45.85797 36.1867,76.000739 0.9685,4.9213 1.9443,17.87442 2.3064,30.61633 l 0.6277,22.08607 -4.7395,0.75353 c -9.7604,1.55182 -58.3071,8.19934 -59.8797,8.19934 -1.3962,0 -1.6366,-3.08278 -1.6366,-20.98737 0,-23.40337 -1.0153,-29.98167 -6.7424,-43.68665 -5.1035,-12.21287 -18.15586,-27.208369 -28.94581,-33.255079 -16.2252,-9.09265 15.8453,-8.37964 -360.7328,-8.02007 l -339.51295,0.32417 -7.29073,3.27852 c -16.30817,7.33353 -29.22205,20.262159 -36.68667,36.728599 -8.05417,17.76692 -7.39198,-17.672709 -7.39198,395.61788 0,413.29063 -0.66219,377.85093 7.39198,395.61793 7.46462,16.4664 20.3785,29.395 36.68667,36.7286 l 7.29073,3.2785 342.28227,0 342.2823,0 7.29077,-3.2786 c 20.12209,-9.0486 33.09182,-24.312 41.76852,-49.1554 1.5792,-4.5214 1.8275,-17.4261 2.3101,-120.047 l 0.5407,-114.9809 29.1995,-3.9992 c 16.0597,-2.1995 30.7992,-4.2855 32.7545,-4.6355 l 3.555,-0.6364 -0.3692,121.4915 c -0.3373,111.003 -0.5347,122.3008 -2.2857,130.8665 -6.3376,31.0035 -17.727,55.0271 -36.2233,76.406 -18.2656,21.11216 -37.7987,33.57056 -65.02263,41.47196 l -9.19242,2.6679 -341.74157,0.1995 c -187.95784,0.1097 -345.14814,-0.2733 -349.31177,-0.851 z m 456.91702,-302.70686 -1.7e-4,-69.0625 142.35959,-163.75003 c 78.29775,-90.0625 142.65945,-163.8911 143.02605,-164.06355 0.3665,-0.17246 27.6735,30.90621 60.6822,69.06371 l 60.0157,69.37728 -141.6672,163.74879 -141.66718,163.7488 -61.37445,0 -61.37445,0 -9e-5,-69.0625 z m 124.49896,-1.7365 c 4.79754,-0.7011 5.85668,-1.7244 26.4874,-25.5927 l 21.48992,-24.8624 -32.97114,-38.1249 -32.97114,-38.12486 -21.32753,24.68946 -21.32753,24.6894 -2.19926,16.479 c -1.20959,9.0635 -2.19926,17.4171 -2.19926,18.5635 0,1.882 1.7999,2.0419 18.52101,1.646 l 18.52101,-0.4385 -0.68763,9.375 c -0.37808,5.1562 -1.0042,14.9473 -1.39119,21.7579 l -0.70373,12.383 12.8808,-0.8548 c 7.08443,-0.4701 15.12963,-1.1833 17.87827,-1.5851 z m 14.66876,-136.7581 c 4.48149,-1.92406 155.79615,-177.07411 157.18955,-181.95038 2.1405,-7.4906 -2.4758,-14.24255 -9.7376,-14.24255 -3.6056,0 -8.0445,4.89172 -81.95038,90.30926 -73.95115,85.46993 -78.1383,90.54573 -78.1383,94.72188 0,5.01583 2.38561,9.63985 5.79342,11.22939 3.09661,1.44439 3.32692,1.44212 6.84331,-0.0676 z m -541.47797,175.151 c -13.74425,-4.8927 -22.61329,-17.8904 -23.51993,-34.4689 -0.88169,-16.1223 6.1569,-29.5901 19.20108,-36.7398 l 5.94804,-3.2602 108.68679,0 108.68678,0 6.04155,3.2747 c 11.88033,6.4397 18.30342,17.139 19.13632,31.8765 0.90254,15.9714 -5.38844,29.1014 -17.47424,36.4704 l -5.54071,3.3784 -109.2275,0.2169 c -60.07514,0.1194 -110.44732,-0.2172 -111.93818,-0.748 z m -1.79639,-228.64989 c -7.27348,-2.91549 -12.8035,-7.88476 -16.72182,-15.0262 -4.25244,-7.7504 -5.60503,-14.20939 -5.00866,-23.91784 0.83787,-13.63967 7.58519,-24.9265 18.71292,-31.30274 l 5.36168,-3.07226 217.9143,0 c 212.19573,0 218.05543,0.0629 223.29117,2.39679 21.35089,9.51735 27.52715,42.06747 11.60277,61.14871 -2.20116,2.63753 -6.43538,6.29378 -9.4094,8.125 l -5.4073,3.3295 -217.37359,0.27956 c -206.52371,0.2656 -217.65251,0.16775 -222.96207,-1.96052 z m 776.38051,-166.77846 -59.7573,-69.07869 26.2382,-30.13069 c 29.5528,-33.93682 30.9881,-35.061 43.3056,-33.91819 3.7365,0.34668 8.719,1.78534 11.0825,3.20003 2.5309,1.51484 22.1302,23.26825 47.7324,52.97857 42.8178,49.68822 43.4647,50.51407 45.2802,57.80465 2.3031,9.24862 1.59,17.45473 -2.2201,25.5461 -1.7531,3.72285 -12.0728,16.67084 -27.3594,34.32722 l -24.5446,28.34967 -59.7575,-69.07868 z M 331.5145,301.40086 c -6.88613,-2.96503 -16.43214,-14.17731 -18.73534,-22.00563 -2.28304,-7.75978 -2.32052,-18.5459 -0.0907,-26.1099 2.08401,-7.06941 9.92473,-17.47247 16.00064,-21.22966 l 4.44762,-2.75026 297.94238,0 297.94242,0 4.44757,2.75026 c 6.0759,3.75719 13.91667,14.16025 16.00068,21.22966 4.1773,14.1702 1.25865,28.44262 -8.00609,39.15125 -10.82274,12.50938 23.72136,11.26972 -310.92531,11.15797 -272.44435,-0.091 -294.51649,-0.2529 -299.02384,-2.19369 z"
     id="path3501"
     inkscape:connector-curvature="0" />
</svg>
