<?xml version="1.0" encoding="UTF-8" standalone="no"?>
<svg
   xmlns:dc="http://purl.org/dc/elements/1.1/"
   xmlns:cc="http://creativecommons.org/ns#"
   xmlns:rdf="http://www.w3.org/1999/02/22-rdf-syntax-ns#"
   xmlns:svg="http://www.w3.org/2000/svg"
   xmlns="http://www.w3.org/2000/svg"
   viewBox="0 0 225 225"
   height="225"
   width="225"
   version="1.1"
   id="svg3958">
  <metadata
     id="metadata3964">
    <rdf:RDF>
      <cc:Work
         rdf:about="">
        <dc:format>image/svg+xml</dc:format>
        <dc:type
           rdf:resource="http://purl.org/dc/dcmitype/StillImage" />
        <dc:title></dc:title>
      </cc:Work>
    </rdf:RDF>
  </metadata>
  <defs
     id="defs3962" />
  <path
     id="path3968"
     d="m 21.872881,207.93283 c -4.757816,-2.1848 -6.889919,-4.41489 -8.961862,-9.37375 -5.1168469,-12.24634 3.321036,-25.24552 16.387088,-25.24552 3.066126,0 6.535205,0.3513 7.709065,0.78066 1.776957,0.64996 4.577404,-1.27048 16.726568,-11.47044 l 14.592277,-12.2511 -0.587974,-3.67698 c -1.628756,-10.18569 7.816457,-20.92136 18.352721,-20.86018 7.26438,0.0422 15.268796,5.60255 17.602846,12.22804 0.33908,0.9625 1.19312,1.7523 1.89789,1.75512 0.70476,0.003 9.83138,1.10476 20.28138,2.44878 17.62674,2.26705 19.09132,2.32381 20.26348,0.78532 0.69491,-0.91209 1.14491,-1.93204 1,-2.26656 -0.14491,-0.33452 -7.23848,-14.4088 -15.76348,-31.27618 -14.05405,-27.807027 -15.73322,-30.671341 -18,-30.704184 -3.90186,-0.05653 -10.31606,-3.390771 -13.26507,-6.895467 -10.003406,-11.88838 -1.739086,-30.09683 13.66013,-30.09683 5.50115,0 9.31561,1.374475 12.65644,4.56053 l 2.55149,2.433293 16.21075,-4.685517 16.21074,-4.685518 1.02823,-3.818525 c 1.27202,-4.723935 6.60506,-10.206183 11.49987,-11.821615 12.46738,-4.114607 25.46155,6.111335 24.21751,19.058305 -1.40144,14.585029 -17.2598,21.637793 -29.40468,13.077286 l -4.48443,-3.160917 -15.46973,4.521339 c -8.50835,2.486736 -15.68157,4.521339 -15.94049,4.521339 -0.25892,0 -0.47076,0.692927 -0.47076,1.539838 0,0.846911 -0.90524,3.314251 -2.01164,5.482979 l -2.01164,3.94314 15.49008,30.967664 15.49007,30.96766 3.77157,0.67159 c 13.13577,2.33905 19.96113,15.17404 14.29428,26.8802 -5.55312,11.47121 -22.05857,13.42363 -30.3345,3.58824 -1.40251,-1.66678 -2.82224,-3.88821 -3.15495,-4.9365 -0.75615,-2.38241 -1.21225,-2.48575 -22.74278,-5.15254 l -17.70951,-2.19353 -4.653986,4.09661 c -4.99602,4.39768 -9.3019,5.75324 -15.24033,4.79792 -2.02767,-0.32619 -4.45196,-0.71912 -5.38733,-0.87317 -0.97657,-0.16084 -7.831712,4.82451 -16.100245,11.70876 l -14.399567,11.98887 0.466926,4.14255 c 1.619747,14.37036 -12.934837,24.62089 -26.266447,18.49899 z"
     style="fill:#ffffff" />
</svg>
