<?xml version="1.0" encoding="UTF-8" standalone="no"?>
<svg
   xmlns:dc="http://purl.org/dc/elements/1.1/"
   xmlns:cc="http://creativecommons.org/ns#"
   xmlns:rdf="http://www.w3.org/1999/02/22-rdf-syntax-ns#"
   xmlns:svg="http://www.w3.org/2000/svg"
   xmlns="http://www.w3.org/2000/svg"
   id="svg3390"
   version="1.1"
   width="294.52658"
   height="228.84151"
   viewBox="0 0 294.52658 228.84151">
  <metadata
     id="metadata3396">
    <rdf:RDF>
      <cc:Work
         rdf:about="">
        <dc:format>image/svg+xml</dc:format>
        <dc:type
           rdf:resource="http://purl.org/dc/dcmitype/StillImage" />
        <dc:title></dc:title>
      </cc:Work>
    </rdf:RDF>
  </metadata>
  <defs
     id="defs3394" />
  <g
     id="g3402"
     transform="matrix(1,0,-0.78339882,0.72881357,-124.29837,14.409122)"
     style="opacity:0.15;fill:#1a1a1a">
    <path
       style="fill:#1a1a1a"
       d="M 343.26293,279.07155 C 278.33013,187.63543 248.01966,105.7675 260.23485,54.81451 c 8.34847,-34.823796 37.02259,-63.4565733 71.49817,-71.395066 36.79995,-8.473715 67.46203,-0.08882 92.97627,25.4254227 30.51705,30.5170533 36.68073,69.7617303 19.74721,125.7322133 -7.87567,26.03152 -25.15333,63.14114 -44.52785,95.63862 -16.15859,27.10333 -40.89988,62.91977 -44.20918,63.99892 -0.76044,0.24797 -6.36588,-6.5664 -12.45654,-15.14307 z m 26.28721,-141.40846 c 22.20556,-5.78381 39.22914,-22.8074 45.01295,-45.012953 6.72368,-25.81396 -6.27065,-55.051747 -30.0979,-67.721565 -25.96754,-13.807874 -54.25846,-9.500024 -73.85911,11.246508 -11.94275,12.64093 -16.629,24.519867 -16.629,42.151997 0,17.63214 4.68625,29.511073 16.629,42.152003 15.69969,16.61751 37.13134,22.8655 58.94406,17.18401 z"
       id="path3406" />
    <path
       style="fill:#1a1a1a"
       d="m 354.5,217.98736 0,-76.06682 9.0625,-1.49647 c 26.99186,-4.45711 47.85029,-25.31554 52.3074,-52.307403 C 421.27655,55.374532 397.44,23.278395 363.5625,17.684263 L 354.5,16.18779 l 0,-17.5020843 0,-17.5020837 9.6875,0.750576 c 35.09949,2.719464 67.45422,27.0060007 81.15031,60.914103 11.73908,29.063001 7.80344,69.454119 -11.44466,117.455869 -12.02536,29.98939 -33.30754,68.95889 -56.31901,103.125 -11.0516,16.40879 -21.50648,30.625 -22.5222,30.625 -0.30357,0 -0.55194,-34.23006 -0.55194,-76.06681 z"
       id="path3404" />
  </g>
</svg>
