<?xml version="1.0" encoding="UTF-8" standalone="no"?>
<svg
   xmlns:dc="http://purl.org/dc/elements/1.1/"
   xmlns:cc="http://creativecommons.org/ns#"
   xmlns:rdf="http://www.w3.org/1999/02/22-rdf-syntax-ns#"
   xmlns:svg="http://www.w3.org/2000/svg"
   xmlns="http://www.w3.org/2000/svg"
   viewBox="0 0 225 225"
   height="225"
   width="225"
   version="1.1"
   id="svg3873">
  <metadata
     id="metadata3879">
    <rdf:RDF>
      <cc:Work
         rdf:about="">
        <dc:format>image/svg+xml</dc:format>
        <dc:type
           rdf:resource="http://purl.org/dc/dcmitype/StillImage" />
        <dc:title></dc:title>
      </cc:Work>
    </rdf:RDF>
  </metadata>
  <defs
     id="defs3877" />
  <path
     id="path3883"
     d="M 104.42431,183.78184 C 101.43764,180.62347 95.194237,172.98043 90.550107,166.79729 48.88459,111.32449 42.043846,69.420475 70.053157,41.240188 81.832047,29.3894 93.927667,24.35001 110.59322,24.35001 c 16.66555,0 28.76117,5.03939 40.54006,16.890178 12.60449,12.681432 17.642,26.191776 16.62451,44.586085 -1.02573,18.543357 -9.44783,39.776687 -25.38529,63.999997 -8.96681,13.62863 -27.36134,36.93836 -30.45658,38.59489 -1.81329,0.97044 -2.71461,0.41228 -7.49161,-4.63932 z m 21.13587,-72.36469 c 7.02442,-3.45811 12.15808,-8.66889 15.77827,-16.015307 1.86188,-3.77829 2.25393,-6.23092 2.24996,-14.075571 -0.004,-8.334399 -0.32884,-10.113474 -2.64579,-14.5 C 133.81293,53.328159 119.725,46.057221 105.22876,48.393951 94.611967,50.105331 85.391197,56.93009 80.325297,66.826272 c -3.4192,6.679367 -4.20938,18.041525 -1.76625,25.397111 6.3739,19.190007 28.584643,28.260177 47.001133,19.193767 z"
     style="fill:#ffffff" />
</svg>
