<?xml version="1.0" encoding="UTF-8" standalone="no"?>
<svg
   xmlns:dc="http://purl.org/dc/elements/1.1/"
   xmlns:cc="http://creativecommons.org/ns#"
   xmlns:rdf="http://www.w3.org/1999/02/22-rdf-syntax-ns#"
   xmlns:svg="http://www.w3.org/2000/svg"
   xmlns="http://www.w3.org/2000/svg"
   viewBox="0 0 512 512"
   height="512"
   width="512"
   version="1.1"
   id="svg4062">
  <metadata
     id="metadata4068">
    <rdf:RDF>
      <cc:Work
         rdf:about="">
        <dc:format>image/svg+xml</dc:format>
        <dc:type
           rdf:resource="http://purl.org/dc/dcmitype/StillImage" />
        <dc:title></dc:title>
      </cc:Work>
    </rdf:RDF>
  </metadata>
  <defs
     id="defs4066" />
  <path
     id="path4072"
     d="m 92.808314,435.35172 c -9.50378,-3.39586 -14.44545,-7.79258 -19.36542,-17.22986 -3.47796,-6.67128 -3.39925,-18.43473 0.17376,-25.96932 2.37482,-5.00792 10.13959,-14 12.08917,-14 0.44146,0 0.80265,-41.59952 0.80265,-92.44339 l 0,-92.44338 -5.39759,-5.10482 c -7.44997,-7.04587 -10.06885,-13.17115 -10.05111,-23.50841 0.0123,-7.16882 0.36535,-8.6547 3.39793,-14.30139 1.86131,-3.46576 4.72333,-7.42819 6.36004,-8.80539 8.98462,-7.56006 20.872546,-10.07941 31.124056,-6.59598 l 5.93333,2.01613 40.02134,-25.18725 40.02134,-25.187253 1.08723,-5.96943 c 1.27977,-7.02657 5.7131,-15.62663 9.84994,-19.10755 1.61623,-1.35997 5.23695,-3.667 8.04605,-5.12673 4.32897,-2.24953 6.403,-2.65974 13.60744,-2.69134 7.90416,-0.0347 8.95564,0.21336 15,3.53825 7.16457,3.94108 13.07818,10.66711 15.31409,17.41793 l 1.32481,4 45.35536,15.41795 45.35536,15.417943 3.07519,-1.8435 c 8.95209,-5.36658 10.9566,-5.99287 19.07519,-5.95987 7.14968,0.0291 8.66977,0.39222 14.30139,3.41671 6.99013,3.75409 10.1103,6.96957 13.76894,14.18956 4.88645,9.64294 4.20889,20.72538 -1.84958,30.25238 l -3.11042,4.89117 15.19281,45.61472 15.19281,45.61472 4.1429,1.29299 c 9.6544,3.01312 17.39716,11.35148 20.52203,22.10064 2.75539,9.47821 0.29189,20.316 -6.59427,29.01049 -3.32624,4.19972 -12.57449,9.54578 -18.37527,10.62204 l -3.80867,0.70665 -19.41267,38.81539 -19.41267,38.81539 2.1723,4.81231 c 3.29048,7.28947 3.13591,18.96664 -0.34945,26.3988 -3.20611,6.8367 -8.26534,12.04467 -15.16361,15.60942 -7.46516,3.8577 -18.81921,3.94096 -26.71657,0.19592 -5.00792,-2.37482 -14,-10.13959 -14,-12.08917 0,-0.44146 -45.19952,-0.80265 -100.44339,-0.80265 l -100.44338,0 -5.10482,5.39759 c -8.79753,9.30209 -21.63792,12.75732 -32.708566,8.80159 z M 331.50847,388.35399 c 0,-0.43921 1.81553,-2.68799 4.03452,-4.99729 4.46935,-4.65127 10.2106,-7.9412 16.82752,-9.64276 l 4.36205,-1.12171 19.63795,-38.59397 19.63796,-38.59398 -2.2731,-4.70016 c -4.63137,-9.57645 -3.71768,-22.12853 2.251,-30.92388 1.38716,-2.04408 2.5221,-4.1872 2.5221,-4.76249 0,-0.57528 -6.77407,-21.15324 -15.05348,-45.7288 l -15.05349,-44.68284 -4.08738,-1.27566 c -9.06156,-2.8281 -17.17331,-10.96535 -20.00677,-20.06965 l -1.29888,-4.17348 -45.68288,-14.98281 -45.68287,-14.9828 -3.71375,2.52022 c -8.0338,5.45188 -18.09416,6.76633 -27.34449,3.57273 l -5.42399,-1.87259 -39.9962,25.19388 -39.9962,25.19388 -1.2387,6.07261 c -0.68129,3.33993 -2.13354,7.82254 -3.22724,9.96135 -1.95957,3.83213 -9.82709,12.38875 -11.39103,12.38875 -0.44146,0 -0.80265,41.5593 -0.80265,92.35401 l 0,92.35401 5.75,5.99992 5.75,5.99992 100.75,0.14607 c 55.4125,0.0803 100.75,-0.21328 100.75,-0.65248 z"
     style="fill:#ffffff" />
</svg>
