<?xml version="1.0" encoding="UTF-8" standalone="no"?>
<svg
   xmlns:dc="http://purl.org/dc/elements/1.1/"
   xmlns:cc="http://creativecommons.org/ns#"
   xmlns:rdf="http://www.w3.org/1999/02/22-rdf-syntax-ns#"
   xmlns:svg="http://www.w3.org/2000/svg"
   xmlns="http://www.w3.org/2000/svg"
   xmlns:sodipodi="http://sodipodi.sourceforge.net/DTD/sodipodi-0.dtd"
   xmlns:inkscape="http://www.inkscape.org/namespaces/inkscape"
   viewBox="0 0 1280 747"
   height="747"
   width="1280"
   version="1.1"
   id="svg3390"
   inkscape:version="0.91 r13725"
   sodipodi:docname="right-double-arrow.svg">
  <sodipodi:namedview
     pagecolor="#ffffff"
     bordercolor="#666666"
     borderopacity="1"
     objecttolerance="10"
     gridtolerance="10"
     guidetolerance="10"
     inkscape:pageopacity="0"
     inkscape:pageshadow="2"
     inkscape:window-width="1366"
     inkscape:window-height="744"
     id="namedview3342"
     showgrid="false"
     inkscape:zoom="0.57458342"
     inkscape:cx="623.48344"
     inkscape:cy="359.04193"
     inkscape:window-x="0"
     inkscape:window-y="24"
     inkscape:window-maximized="1"
     inkscape:current-layer="svg3390" />
  <metadata
     id="metadata3396">
    <rdf:RDF>
      <cc:Work
         rdf:about="">
        <dc:format>image/svg+xml</dc:format>
        <dc:type
           rdf:resource="http://purl.org/dc/dcmitype/StillImage" />
        <dc:title></dc:title>
      </cc:Work>
    </rdf:RDF>
  </metadata>
  <defs
     id="defs3394" />
  <g
     transform="matrix(0.89030485,0,0,0.89030485,140.38377,47.484282)"
     id="g3417"
     style="fill:#ffffff">
    <path
       style="fill:#ffffff"
       d="m 962.29796,362.06459 c -1.54418,7.41461 -3.06633,11.82952 -6.12133,17.7546 -3.1899,6.18669 -17.07388,20.28269 -165.13577,167.65763 -88.90919,88.49667 -163.88986,162.75937 -166.62372,165.02821 -16.41021,13.61891 -40.47655,15.93083 -59.97066,5.76107 -7.936,-4.14008 -18.32814,-14.66879 -22.27557,-22.56832 -8.7233,-17.45687 -7.67534,-38.26488 2.70869,-53.78312 2.47386,-3.69703 56.47992,-58.08555 146.74073,-147.77993 78.55438,-78.06142 142.82615,-142.2363 142.82615,-142.61085 0,-0.37455 -64.27045,-64.53111 -142.82322,-142.57014 C 595.82925,113.78623 547.49933,65.088892 544.84994,61.064592 534.44919,45.266433 533.44301,24.975732 542.18667,7.3565328 c 3.92391,-7.90710001 14.16059,-18.2470008 22.25981,-22.4844008 19.53667,-10.2213 43.46157,-7.8648 60.16334,5.9258008 2.66016,2.1965 77.56253,76.3812692 166.44969,164.8551672 149.12265,148.42933 161.89804,161.40401 165.30071,167.8793 2.02822,3.85971 4.33204,10.05842 5.1196,13.77492 1.32744,6.26416 1.78512,20.11411 0.81814,24.75727 z"
       id="path3400"
       inkscape:connector-curvature="0" />
    <path
       style="fill:#ffffff"
       d="m 648.40157,362.06459 c -1.5442,7.41461 -3.0663,11.82952 -6.12132,17.7546 -3.1899,6.18669 -17.07388,20.28269 -165.13577,167.65763 -88.90919,88.49667 -163.88986,162.75937 -166.62372,165.02821 -16.41021,13.61891 -40.47655,15.93083 -59.97066,5.76107 -7.936,-4.14008 -18.32814,-14.66879 -22.27557,-22.56832 -8.7233,-17.45687 -7.67534,-38.26488 2.70869,-53.78311 2.47386,-3.69704 56.47992,-58.08556 146.74073,-147.77994 78.55438,-78.06142 142.82615,-142.2363 142.82615,-142.61085 0,-0.37455 -64.27045,-64.53111 -142.82322,-142.57014 C 281.93287,113.78622 233.60295,65.088886 230.95356,61.064586 220.55281,45.266427 219.54663,24.975726 228.29029,7.3565263 232.2142,-0.5505697 242.45088,-10.89047 250.5501,-15.12787 c 19.53667,-10.2213 43.46157,-7.8648 60.16334,5.9258 2.66016,2.1965003 77.56253,76.381266 166.44969,164.85517 149.12265,148.42933 161.89804,161.40401 165.30071,167.8793 2.02823,3.85971 4.33203,10.05842 5.11963,13.77492 1.3274,6.26416 1.7851,20.11411 0.8181,24.75727 z"
       id="path3400-3"
       inkscape:connector-curvature="0" />
  </g>
</svg>
